<?xml version="1.0" ?><!DOCTYPE svg  PUBLIC '-//W3C//DTD SVG 1.1//EN'  'http://www.w3.org/Graphics/SVG/1.1/DTD/svg11.dtd'><svg enable-background="new 0 0 64 64" height="64px" id="Layer_1" version="1.1" viewBox="0 0 64 64" width="64px" xml:space="preserve" xmlns="http://www.w3.org/2000/svg" xmlns:xlink="http://www.w3.org/1999/xlink"><g><path d="M15.312,49.881" fill="#241F20"/><path d="M51.431,32.797c-3.192,0-5.78,2.587-5.78,5.779c0,3.193,2.588,5.781,5.78,5.781   c3.191,0,5.779-2.588,5.779-5.781C57.21,35.385,54.622,32.797,51.431,32.797z M51.431,41.129c-1.409,0-2.552-1.143-2.552-2.553   c0-1.408,1.143-2.551,2.552-2.551c1.408,0,2.552,1.143,2.552,2.551C53.982,39.986,52.839,41.129,51.431,41.129z" fill="#241F20"/><path d="M12.658,32.797c-3.192,0-5.78,2.587-5.78,5.779c0,3.193,2.588,5.781,5.78,5.781   c3.192,0,5.78-2.588,5.78-5.781C18.438,35.385,15.851,32.797,12.658,32.797z M12.658,41.129c-1.409,0-2.551-1.143-2.551-2.553   c0-1.408,1.143-2.551,2.551-2.551c1.409,0,2.552,1.143,2.552,2.551C15.21,39.986,14.067,41.129,12.658,41.129z" fill="#241F20"/><path d="M61.696,26.273c-0.017-0.01-0.019-0.02-0.036-0.031c-0.807-0.454-1.11-1.015-1.11-1.015L48.193,4.534   c-0.024-0.046-0.489-0.89-0.865-1.47c-0.14-0.195-0.444-0.532-0.933-0.532H32.563c-0.307,0-1.51,0-3.11,0   c-4.521,0-12.256,0-12.256,0s-0.726,0.034-1.514,1.396C14.977,5.139,5.105,22.239,2.905,26.073c-1.6,0.288-2.828,1.851-2.828,3.749   v17.504c0,2.117,1.498,3.799,3.347,3.799H6.77v8.391c0,1.045,0.673,1.885,1.514,1.885h5.399c0.821,0,1.511-0.84,1.511-1.885v-8.391   h33.698v8.461c0,1.041,0.673,1.881,1.498,1.881h5.329c0.825,0,1.495-0.84,1.495-1.881v-8.461h3.362   c1.853,0,3.347-1.682,3.347-3.799V29.822C63.923,28.171,62.992,26.793,61.696,26.273z M17.936,6.736c0,0,0.404-0.79,2.286-0.79   h9.412h2.141c0,0,0.105,0.002,0.25,0h12.009c0.499,0.06,1.254,0.313,1.808,1.239l11.25,18.837H6.77L17.936,6.736z M60.56,45.023   c0,1.531-1.326,2.758-2.975,2.758H6.688c-1.648,0-2.979-1.227-2.979-2.758V32.344c0-1.511,1.33-2.756,2.979-2.756h50.897   c1.648,0,2.975,1.245,2.975,2.756V45.023z" fill="#241F20"/></g></svg>