<svg viewBox="0 0 30.002 22.001" xmlns="http://www.w3.org/2000/svg"><g data-name="Layer 2"><path d="M17.147 6.355a1.854 1.854 0 0 1-1.673-1.24L15 3.786l-.472 1.327a1.855 1.855 0 0 1-1.675 1.242l-1.476.062 1.198.981a1.894 1.894 0 0 1 .623 1.963l-.394 1.453 1.146-.793a1.85 1.85 0 0 1 2.102 0l1.144.794-.394-1.455a1.896 1.896 0 0 1 .624-1.962l1.198-.981Z" fill="none"></path><path d="M11.359 16.507a1.25 1.25 0 0 0-2.413.654l.394 1.453-1.143-.792a1.846 1.846 0 0 0-2.103-.002l-1.146.794.394-1.452a1.9 1.9 0 0 0-.623-1.964l-1.198-.981 1.48-.06a1.856 1.856 0 0 0 1.67-1.244l1.08-3.03a1.25 1.25 0 0 0-2.356-.838l-.937 2.63-2.672.111A1.85 1.85 0 0 0 .1 13.063a1.88 1.88 0 0 0 .592 2.068l2.136 1.75-.742 2.735a1.877 1.877 0 0 0 .73 2.044 1.825 1.825 0 0 0 2.113.009l2.215-1.535 2.215 1.535a1.827 1.827 0 0 0 2.112-.009 1.877 1.877 0 0 0 .73-2.044ZM29.902 13.063a1.85 1.85 0 0 0-1.686-1.277l-2.672-.11-.936-2.631a1.25 1.25 0 0 0-2.356.838l1.079 3.03a1.856 1.856 0 0 0 1.674 1.243l1.476.06-1.2.984a1.899 1.899 0 0 0-.621 1.961l.394 1.453-1.143-.792a1.845 1.845 0 0 0-2.103-.002l-1.146.794.395-1.453a1.25 1.25 0 0 0-2.413-.654l-.843 3.11a1.877 1.877 0 0 0 .73 2.043 1.825 1.825 0 0 0 2.113.009l2.214-1.535 2.215 1.535a1.827 1.827 0 0 0 2.113-.009 1.877 1.877 0 0 0 .73-2.044l-.742-2.735 2.137-1.75a1.882 1.882 0 0 0 .591-2.068ZM19.33 13.86a1.876 1.876 0 0 0 .73-2.044l-.742-2.735 2.136-1.75a1.88 1.88 0 0 0 .59-2.067 1.85 1.85 0 0 0-1.684-1.278l-2.673-.11-.936-2.632a1.852 1.852 0 0 0-3.5 0l-.935 2.632-2.673.11a1.85 1.85 0 0 0-1.685 1.278 1.88 1.88 0 0 0 .591 2.067l2.136 1.75-.742 2.735a1.876 1.876 0 0 0 .73 2.043 1.828 1.828 0 0 0 2.114.01L15 12.333l2.215 1.534a1.83 1.83 0 0 0 2.113-.009Zm-2.527-4.5.394 1.454-1.144-.793a1.85 1.85 0 0 0-2.102 0l-1.146.793.394-1.453a1.894 1.894 0 0 0-.623-1.963l-1.198-.981 1.476-.062a1.855 1.855 0 0 0 1.675-1.242l.472-1.327.473 1.33a1.854 1.854 0 0 0 1.673 1.24l1.478.061-1.198.98a1.896 1.896 0 0 0-.624 1.963Z" fill="#8c3cbd" class="fill-000000"></path></g></svg>